<svg width="16" height="16" viewBox="0 0 16 16" fill="none" xmlns="http://www.w3.org/2000/svg">
  <path 
    d="M8 0C3.58 0 0 3.58 0 8C0 11.42 2.29 14.18 5.47 15.19C5.88 15.27 6.04 15 6.04 14.75C6.04 14.52 6.03 13.84 6.03 13.05C4 13.49 3.48 12.4 3.48 12.4C3.09 11.53 2.53 11.3 2.53 11.3C1.75 10.83 2.6 10.84 2.6 10.84C3.47 10.89 3.94 11.75 3.94 11.75C4.72 12.96 5.95 12.57 6.42 12.32C6.49 11.77 6.7 11.41 6.93 11.2C5.11 10.99 3.17 10.3 3.17 7.34C3.17 6.49 3.5 5.84 4.03 5.38C3.95 5.17 3.65 4.36 4.1 3.28C4.1 3.28 4.74 3.07 6.03 3.99C6.65 3.83 7.32 3.75 8 3.75C8.68 3.75 9.35 3.83 9.97 3.99C11.26 3.07 11.9 3.28 11.9 3.28C12.35 4.36 12.05 5.17 11.97 5.38C12.5 5.84 12.83 6.49 12.83 7.34C12.83 10.31 10.89 10.99 9.07 11.19C9.35 11.45 9.59 11.96 9.59 12.73C9.59 13.82 9.58 14.68 9.58 14.75C9.58 15 9.74 15.27 10.15 15.19C13.31 14.18 15.6 11.42 15.6 8C15.6 3.58 12.42 0 8 0Z" 
    fill="white"
  />
</svg>
